<mxfile host="65bd71144e">
    <diagram id="9HHYLDq7i65JiXVfwn_P" name="ページ1">
        <mxGraphModel dx="513" dy="453" grid="1" gridSize="10" guides="1" tooltips="1" connect="1" arrows="1" fold="1" page="1" pageScale="1" pageWidth="1169" pageHeight="827" background="#FFFFFF" math="0" shadow="0">
            <root>
                <mxCell id="0"/>
                <mxCell id="1" parent="0"/>
                <mxCell id="11" value="AWS Cloud" style="points=[[0,0],[0.25,0],[0.5,0],[0.75,0],[1,0],[1,0.25],[1,0.5],[1,0.75],[1,1],[0.75,1],[0.5,1],[0.25,1],[0,1],[0,0.75],[0,0.5],[0,0.25]];outlineConnect=0;gradientColor=none;html=1;whiteSpace=wrap;fontSize=12;fontStyle=0;container=1;pointerEvents=0;collapsible=0;recursiveResize=0;shape=mxgraph.aws4.group;grIcon=mxgraph.aws4.group_aws_cloud_alt;strokeColor=#232F3E;fillColor=none;verticalAlign=top;align=left;spacingLeft=30;fontColor=#232F3E;dashed=0;" vertex="1" parent="1">
                    <mxGeometry x="360" y="40" width="320" height="360" as="geometry"/>
                </mxCell>
                <mxCell id="10" value="VPC" style="points=[[0,0],[0.25,0],[0.5,0],[0.75,0],[1,0],[1,0.25],[1,0.5],[1,0.75],[1,1],[0.75,1],[0.5,1],[0.25,1],[0,1],[0,0.75],[0,0.5],[0,0.25]];outlineConnect=0;gradientColor=none;html=1;whiteSpace=wrap;fontSize=12;fontStyle=0;container=1;pointerEvents=0;collapsible=0;recursiveResize=0;shape=mxgraph.aws4.group;grIcon=mxgraph.aws4.group_vpc;strokeColor=#248814;fillColor=none;verticalAlign=top;align=left;spacingLeft=30;fontColor=#AAB7B8;dashed=0;" vertex="1" parent="11">
                    <mxGeometry x="30" y="30" width="260" height="300" as="geometry"/>
                </mxCell>
                <mxCell id="14" value="Private subnet" style="points=[[0,0],[0.25,0],[0.5,0],[0.75,0],[1,0],[1,0.25],[1,0.5],[1,0.75],[1,1],[0.75,1],[0.5,1],[0.25,1],[0,1],[0,0.75],[0,0.5],[0,0.25]];outlineConnect=0;gradientColor=none;html=1;whiteSpace=wrap;fontSize=12;fontStyle=0;container=1;pointerEvents=0;collapsible=0;recursiveResize=0;shape=mxgraph.aws4.group;grIcon=mxgraph.aws4.group_security_group;grStroke=0;strokeColor=#147EBA;fillColor=#E6F2F8;verticalAlign=top;align=left;spacingLeft=30;fontColor=#147EBA;dashed=0;" vertex="1" parent="10">
                    <mxGeometry x="30" y="30" width="200" height="240" as="geometry"/>
                </mxCell>
                <mxCell id="13" value="EC2 instance contents" style="points=[[0,0],[0.25,0],[0.5,0],[0.75,0],[1,0],[1,0.25],[1,0.5],[1,0.75],[1,1],[0.75,1],[0.5,1],[0.25,1],[0,1],[0,0.75],[0,0.5],[0,0.25]];outlineConnect=0;gradientColor=none;html=1;whiteSpace=wrap;fontSize=12;fontStyle=0;container=0;pointerEvents=0;collapsible=0;recursiveResize=0;shape=mxgraph.aws4.group;grIcon=mxgraph.aws4.group_ec2_instance_contents;strokeColor=#D86613;fillColor=none;verticalAlign=top;align=left;spacingLeft=30;fontColor=#D86613;dashed=0;" vertex="1" parent="14">
                    <mxGeometry x="25" y="40" width="145" height="120" as="geometry"/>
                </mxCell>
                <mxCell id="19" value="RDS" style="sketch=0;points=[[0,0,0],[0.25,0,0],[0.5,0,0],[0.75,0,0],[1,0,0],[0,1,0],[0.25,1,0],[0.5,1,0],[0.75,1,0],[1,1,0],[0,0.25,0],[0,0.5,0],[0,0.75,0],[1,0.25,0],[1,0.5,0],[1,0.75,0]];outlineConnect=0;fontColor=#232F3E;gradientColor=#4D72F3;gradientDirection=north;fillColor=#3334B9;strokeColor=#ffffff;dashed=0;verticalLabelPosition=bottom;verticalAlign=top;align=center;html=1;fontSize=12;fontStyle=0;aspect=fixed;shape=mxgraph.aws4.resourceIcon;resIcon=mxgraph.aws4.database;" vertex="1" parent="14">
                    <mxGeometry x="50" y="180" width="30" height="30" as="geometry"/>
                </mxCell>
                <mxCell id="21" value="ECS" style="sketch=0;points=[[0,0,0],[0.25,0,0],[0.5,0,0],[0.75,0,0],[1,0,0],[0,1,0],[0.25,1,0],[0.5,1,0],[0.75,1,0],[1,1,0],[0,0.25,0],[0,0.5,0],[0,0.75,0],[1,0.25,0],[1,0.5,0],[1,0.75,0]];outlineConnect=0;fontColor=#232F3E;gradientColor=#F78E04;gradientDirection=north;fillColor=#D05C17;strokeColor=#ffffff;dashed=0;verticalLabelPosition=bottom;verticalAlign=top;align=center;html=1;fontSize=12;fontStyle=0;aspect=fixed;shape=mxgraph.aws4.resourceIcon;resIcon=mxgraph.aws4.ecs;" vertex="1" parent="14">
                    <mxGeometry x="115" y="180" width="30" height="30" as="geometry"/>
                </mxCell>
                <mxCell id="22" style="edgeStyle=none;html=1;entryX=0.5;entryY=0;entryDx=0;entryDy=0;entryPerimeter=0;" edge="1" parent="14" source="16" target="19">
                    <mxGeometry relative="1" as="geometry"/>
                </mxCell>
                <mxCell id="23" style="edgeStyle=none;html=1;entryX=0.5;entryY=0;entryDx=0;entryDy=0;entryPerimeter=0;" edge="1" parent="14" source="16" target="21">
                    <mxGeometry relative="1" as="geometry"/>
                </mxCell>
                <mxCell id="16" value="code-server" style="rounded=1;whiteSpace=wrap;html=1;" vertex="1" parent="14">
                    <mxGeometry x="50" y="90" width="95" height="40" as="geometry"/>
                </mxCell>
                <mxCell id="15" value="Systems Manager" style="sketch=0;points=[[0,0,0],[0.25,0,0],[0.5,0,0],[0.75,0,0],[1,0,0],[0,1,0],[0.25,1,0],[0.5,1,0],[0.75,1,0],[1,1,0],[0,0.25,0],[0,0.5,0],[0,0.75,0],[1,0.25,0],[1,0.5,0],[1,0.75,0]];points=[[0,0,0],[0.25,0,0],[0.5,0,0],[0.75,0,0],[1,0,0],[0,1,0],[0.25,1,0],[0.5,1,0],[0.75,1,0],[1,1,0],[0,0.25,0],[0,0.5,0],[0,0.75,0],[1,0.25,0],[1,0.5,0],[1,0.75,0]];outlineConnect=0;fontColor=#232F3E;gradientColor=#F34482;gradientDirection=north;fillColor=#BC1356;strokeColor=#ffffff;dashed=0;verticalLabelPosition=bottom;verticalAlign=top;align=center;html=1;fontSize=12;fontStyle=0;aspect=fixed;shape=mxgraph.aws4.resourceIcon;resIcon=mxgraph.aws4.systems_manager;" vertex="1" parent="11">
                    <mxGeometry y="140" width="30" height="30" as="geometry"/>
                </mxCell>
                <mxCell id="9" style="edgeStyle=none;html=1;" edge="1" parent="1" source="2" target="4">
                    <mxGeometry relative="1" as="geometry"/>
                </mxCell>
                <mxCell id="2" value="Developer" style="sketch=0;outlineConnect=0;fontColor=#232F3E;gradientColor=none;fillColor=#232F3D;strokeColor=none;dashed=0;verticalLabelPosition=bottom;verticalAlign=top;align=center;html=1;fontSize=12;fontStyle=0;aspect=fixed;pointerEvents=1;shape=mxgraph.aws4.user;" vertex="1" parent="1">
                    <mxGeometry x="80" y="320" width="40" height="40" as="geometry"/>
                </mxCell>
                <mxCell id="5" value="Internet" style="sketch=0;outlineConnect=0;fontColor=#232F3E;gradientColor=none;fillColor=#232F3D;strokeColor=none;dashed=0;verticalLabelPosition=bottom;verticalAlign=top;align=center;html=1;fontSize=12;fontStyle=0;aspect=fixed;pointerEvents=1;shape=mxgraph.aws4.internet;" vertex="1" parent="1">
                    <mxGeometry x="280" y="140" width="48.75" height="30" as="geometry"/>
                </mxCell>
                <mxCell id="8" value="Corporate data center" style="points=[[0,0],[0.25,0],[0.5,0],[0.75,0],[1,0],[1,0.25],[1,0.5],[1,0.75],[1,1],[0.75,1],[0.5,1],[0.25,1],[0,1],[0,0.75],[0,0.5],[0,0.25]];outlineConnect=0;gradientColor=none;html=1;whiteSpace=wrap;fontSize=12;fontStyle=0;container=0;pointerEvents=0;collapsible=0;recursiveResize=0;shape=mxgraph.aws4.group;grIcon=mxgraph.aws4.group_corporate_data_center;strokeColor=#5A6C86;fillColor=none;verticalAlign=top;align=left;spacingLeft=30;fontColor=#5A6C86;dashed=0;" vertex="1" parent="1">
                    <mxGeometry x="40" y="70" width="200" height="230" as="geometry"/>
                </mxCell>
                <mxCell id="17" style="edgeStyle=none;html=1;entryX=0;entryY=0.5;entryDx=0;entryDy=0;" edge="1" parent="1" source="4" target="16">
                    <mxGeometry relative="1" as="geometry">
                        <mxPoint x="300" y="210" as="targetPoint"/>
                    </mxGeometry>
                </mxCell>
                <mxCell id="18" value="Session Manager PortForward" style="edgeLabel;html=1;align=center;verticalAlign=middle;resizable=0;points=[];" vertex="1" connectable="0" parent="17">
                    <mxGeometry x="-0.1343" y="-1" relative="1" as="geometry">
                        <mxPoint x="-45" y="9" as="offset"/>
                    </mxGeometry>
                </mxCell>
                <mxCell id="6" value="Proxy" style="sketch=0;outlineConnect=0;fontColor=#232F3E;gradientColor=none;fillColor=#232F3D;strokeColor=none;dashed=0;verticalLabelPosition=bottom;verticalAlign=top;align=center;html=1;fontSize=12;fontStyle=0;aspect=fixed;pointerEvents=1;shape=mxgraph.aws4.generic_firewall;" vertex="1" parent="1">
                    <mxGeometry x="170" y="135" width="47.27" height="40" as="geometry"/>
                </mxCell>
                <mxCell id="4" value="VDI" style="sketch=0;outlineConnect=0;fontColor=#232F3E;gradientColor=none;fillColor=#232F3D;strokeColor=none;dashed=0;verticalLabelPosition=bottom;verticalAlign=top;align=center;html=1;fontSize=12;fontStyle=0;aspect=fixed;pointerEvents=1;shape=mxgraph.aws4.client;labelBackgroundColor=default;" vertex="1" parent="1">
                    <mxGeometry x="80" y="190" width="41.05" height="40" as="geometry"/>
                </mxCell>
            </root>
        </mxGraphModel>
    </diagram>
    <diagram name="port-forward" id="AV70jBKwfXA0qfmm-U4t">
        <mxGraphModel dx="1069" dy="453" grid="1" gridSize="10" guides="1" tooltips="1" connect="1" arrows="1" fold="1" page="1" pageScale="1" pageWidth="1169" pageHeight="827" background="#FFFFFF" math="0" shadow="0">
            <root>
                <mxCell id="c7TzceurybHqPkoQGUoN-0"/>
                <mxCell id="c7TzceurybHqPkoQGUoN-1" parent="c7TzceurybHqPkoQGUoN-0"/>
                <mxCell id="smao1aKQK8r9l-RYpVJB-0" value="" style="group" vertex="1" connectable="0" parent="c7TzceurybHqPkoQGUoN-1">
                    <mxGeometry x="40" y="40" width="640" height="360" as="geometry"/>
                </mxCell>
                <mxCell id="c7TzceurybHqPkoQGUoN-2" value="AWS Cloud" style="points=[[0,0],[0.25,0],[0.5,0],[0.75,0],[1,0],[1,0.25],[1,0.5],[1,0.75],[1,1],[0.75,1],[0.5,1],[0.25,1],[0,1],[0,0.75],[0,0.5],[0,0.25]];outlineConnect=0;gradientColor=none;html=1;whiteSpace=wrap;fontSize=12;fontStyle=0;container=1;pointerEvents=0;collapsible=0;recursiveResize=0;shape=mxgraph.aws4.group;grIcon=mxgraph.aws4.group_aws_cloud_alt;strokeColor=#232F3E;fillColor=none;verticalAlign=top;align=left;spacingLeft=30;fontColor=#232F3E;dashed=0;" vertex="1" parent="smao1aKQK8r9l-RYpVJB-0">
                    <mxGeometry x="320" width="320" height="360" as="geometry"/>
                </mxCell>
                <mxCell id="c7TzceurybHqPkoQGUoN-3" value="VPC" style="points=[[0,0],[0.25,0],[0.5,0],[0.75,0],[1,0],[1,0.25],[1,0.5],[1,0.75],[1,1],[0.75,1],[0.5,1],[0.25,1],[0,1],[0,0.75],[0,0.5],[0,0.25]];outlineConnect=0;gradientColor=none;html=1;whiteSpace=wrap;fontSize=12;fontStyle=0;container=1;pointerEvents=0;collapsible=0;recursiveResize=0;shape=mxgraph.aws4.group;grIcon=mxgraph.aws4.group_vpc;strokeColor=#248814;fillColor=none;verticalAlign=top;align=left;spacingLeft=30;fontColor=#AAB7B8;dashed=0;" vertex="1" parent="c7TzceurybHqPkoQGUoN-2">
                    <mxGeometry x="30" y="30" width="260" height="300" as="geometry"/>
                </mxCell>
                <mxCell id="c7TzceurybHqPkoQGUoN-4" value="Private subnet" style="points=[[0,0],[0.25,0],[0.5,0],[0.75,0],[1,0],[1,0.25],[1,0.5],[1,0.75],[1,1],[0.75,1],[0.5,1],[0.25,1],[0,1],[0,0.75],[0,0.5],[0,0.25]];outlineConnect=0;gradientColor=none;html=1;whiteSpace=wrap;fontSize=12;fontStyle=0;container=1;pointerEvents=0;collapsible=0;recursiveResize=0;shape=mxgraph.aws4.group;grIcon=mxgraph.aws4.group_security_group;grStroke=0;strokeColor=#147EBA;fillColor=#E6F2F8;verticalAlign=top;align=left;spacingLeft=30;fontColor=#147EBA;dashed=0;" vertex="1" parent="c7TzceurybHqPkoQGUoN-3">
                    <mxGeometry x="30" y="30" width="200" height="240" as="geometry"/>
                </mxCell>
                <mxCell id="c7TzceurybHqPkoQGUoN-5" value="EC2 instance contents" style="points=[[0,0],[0.25,0],[0.5,0],[0.75,0],[1,0],[1,0.25],[1,0.5],[1,0.75],[1,1],[0.75,1],[0.5,1],[0.25,1],[0,1],[0,0.75],[0,0.5],[0,0.25]];outlineConnect=0;gradientColor=none;html=1;whiteSpace=wrap;fontSize=12;fontStyle=0;container=0;pointerEvents=0;collapsible=0;recursiveResize=0;shape=mxgraph.aws4.group;grIcon=mxgraph.aws4.group_ec2_instance_contents;strokeColor=#D86613;fillColor=none;verticalAlign=top;align=left;spacingLeft=30;fontColor=#D86613;dashed=0;" vertex="1" parent="c7TzceurybHqPkoQGUoN-4">
                    <mxGeometry x="25" y="40" width="145" height="170" as="geometry"/>
                </mxCell>
                <mxCell id="c7TzceurybHqPkoQGUoN-10" value="code-server&lt;br&gt;:8080" style="rounded=1;whiteSpace=wrap;html=1;" vertex="1" parent="c7TzceurybHqPkoQGUoN-4">
                    <mxGeometry x="50" y="90" width="95" height="40" as="geometry"/>
                </mxCell>
                <mxCell id="c7TzceurybHqPkoQGUoN-20" value="node.js&lt;br&gt;:3000" style="rounded=1;whiteSpace=wrap;html=1;" vertex="1" parent="c7TzceurybHqPkoQGUoN-4">
                    <mxGeometry x="50" y="150" width="95" height="40" as="geometry"/>
                </mxCell>
                <mxCell id="c7TzceurybHqPkoQGUoN-11" value="Systems Manager" style="sketch=0;points=[[0,0,0],[0.25,0,0],[0.5,0,0],[0.75,0,0],[1,0,0],[0,1,0],[0.25,1,0],[0.5,1,0],[0.75,1,0],[1,1,0],[0,0.25,0],[0,0.5,0],[0,0.75,0],[1,0.25,0],[1,0.5,0],[1,0.75,0]];points=[[0,0,0],[0.25,0,0],[0.5,0,0],[0.75,0,0],[1,0,0],[0,1,0],[0.25,1,0],[0.5,1,0],[0.75,1,0],[1,1,0],[0,0.25,0],[0,0.5,0],[0,0.75,0],[1,0.25,0],[1,0.5,0],[1,0.75,0]];outlineConnect=0;fontColor=#232F3E;gradientColor=#F34482;gradientDirection=north;fillColor=#BC1356;strokeColor=#ffffff;dashed=0;verticalLabelPosition=bottom;verticalAlign=top;align=center;html=1;fontSize=12;fontStyle=0;aspect=fixed;shape=mxgraph.aws4.resourceIcon;resIcon=mxgraph.aws4.systems_manager;" vertex="1" parent="c7TzceurybHqPkoQGUoN-2">
                    <mxGeometry y="140" width="30" height="30" as="geometry"/>
                </mxCell>
                <mxCell id="c7TzceurybHqPkoQGUoN-13" value="Developer" style="sketch=0;outlineConnect=0;fontColor=#232F3E;gradientColor=none;fillColor=#232F3D;strokeColor=none;dashed=0;verticalLabelPosition=bottom;verticalAlign=top;align=center;html=1;fontSize=12;fontStyle=0;aspect=fixed;pointerEvents=1;shape=mxgraph.aws4.user;" vertex="1" parent="smao1aKQK8r9l-RYpVJB-0">
                    <mxGeometry x="40" y="310" width="40" height="40" as="geometry"/>
                </mxCell>
                <mxCell id="c7TzceurybHqPkoQGUoN-14" value="Internet" style="sketch=0;outlineConnect=0;fontColor=#232F3E;gradientColor=none;fillColor=#232F3D;strokeColor=none;dashed=0;verticalLabelPosition=bottom;verticalAlign=top;align=center;html=1;fontSize=12;fontStyle=0;aspect=fixed;pointerEvents=1;shape=mxgraph.aws4.internet;" vertex="1" parent="smao1aKQK8r9l-RYpVJB-0">
                    <mxGeometry x="240" y="100" width="48.75" height="30" as="geometry"/>
                </mxCell>
                <mxCell id="c7TzceurybHqPkoQGUoN-15" value="Corporate data center" style="points=[[0,0],[0.25,0],[0.5,0],[0.75,0],[1,0],[1,0.25],[1,0.5],[1,0.75],[1,1],[0.75,1],[0.5,1],[0.25,1],[0,1],[0,0.75],[0,0.5],[0,0.25]];outlineConnect=0;gradientColor=none;html=1;whiteSpace=wrap;fontSize=12;fontStyle=0;container=0;pointerEvents=0;collapsible=0;recursiveResize=0;shape=mxgraph.aws4.group;grIcon=mxgraph.aws4.group_corporate_data_center;strokeColor=#5A6C86;fillColor=none;verticalAlign=top;align=left;spacingLeft=30;fontColor=#5A6C86;dashed=0;" vertex="1" parent="smao1aKQK8r9l-RYpVJB-0">
                    <mxGeometry y="30" width="200" height="250" as="geometry"/>
                </mxCell>
                <mxCell id="c7TzceurybHqPkoQGUoN-16" style="edgeStyle=none;html=1;entryX=0;entryY=0.5;entryDx=0;entryDy=0;" edge="1" parent="smao1aKQK8r9l-RYpVJB-0" source="c7TzceurybHqPkoQGUoN-19" target="c7TzceurybHqPkoQGUoN-10">
                    <mxGeometry relative="1" as="geometry">
                        <mxPoint x="260" y="170" as="targetPoint"/>
                    </mxGeometry>
                </mxCell>
                <mxCell id="c7TzceurybHqPkoQGUoN-17" value="Session Manager PortForward&lt;br&gt;:8080" style="edgeLabel;html=1;align=center;verticalAlign=middle;resizable=0;points=[];" vertex="1" connectable="0" parent="c7TzceurybHqPkoQGUoN-16">
                    <mxGeometry x="-0.1343" y="-1" relative="1" as="geometry">
                        <mxPoint x="-42" y="19" as="offset"/>
                    </mxGeometry>
                </mxCell>
                <mxCell id="c7TzceurybHqPkoQGUoN-18" value="Proxy" style="sketch=0;outlineConnect=0;fontColor=#232F3E;gradientColor=none;fillColor=#232F3D;strokeColor=none;dashed=0;verticalLabelPosition=bottom;verticalAlign=top;align=center;html=1;fontSize=12;fontStyle=0;aspect=fixed;pointerEvents=1;shape=mxgraph.aws4.generic_firewall;" vertex="1" parent="smao1aKQK8r9l-RYpVJB-0">
                    <mxGeometry x="130" y="95" width="47.27" height="40" as="geometry"/>
                </mxCell>
                <mxCell id="c7TzceurybHqPkoQGUoN-21" style="edgeStyle=orthogonalEdgeStyle;html=1;entryX=0;entryY=0.5;entryDx=0;entryDy=0;" edge="1" parent="smao1aKQK8r9l-RYpVJB-0" source="c7TzceurybHqPkoQGUoN-19" target="c7TzceurybHqPkoQGUoN-20">
                    <mxGeometry relative="1" as="geometry">
                        <Array as="points">
                            <mxPoint x="100" y="170"/>
                            <mxPoint x="100" y="230"/>
                        </Array>
                    </mxGeometry>
                </mxCell>
                <mxCell id="c7TzceurybHqPkoQGUoN-23" value="Session Manager PortForward&lt;br&gt;:3000" style="edgeLabel;html=1;align=center;verticalAlign=middle;resizable=0;points=[];" vertex="1" connectable="0" parent="c7TzceurybHqPkoQGUoN-21">
                    <mxGeometry x="0.0174" y="-2" relative="1" as="geometry">
                        <mxPoint x="-39" y="18" as="offset"/>
                    </mxGeometry>
                </mxCell>
                <mxCell id="c7TzceurybHqPkoQGUoN-19" value="VDI" style="sketch=0;outlineConnect=0;fontColor=#232F3E;gradientColor=none;fillColor=#232F3D;strokeColor=none;dashed=0;verticalLabelPosition=bottom;verticalAlign=top;align=center;html=1;fontSize=12;fontStyle=0;aspect=fixed;pointerEvents=1;shape=mxgraph.aws4.client;labelBackgroundColor=default;" vertex="1" parent="smao1aKQK8r9l-RYpVJB-0">
                    <mxGeometry x="40" y="150" width="41.05" height="40" as="geometry"/>
                </mxCell>
                <mxCell id="c7TzceurybHqPkoQGUoN-12" style="edgeStyle=none;html=1;" edge="1" parent="smao1aKQK8r9l-RYpVJB-0" source="c7TzceurybHqPkoQGUoN-13" target="c7TzceurybHqPkoQGUoN-19">
                    <mxGeometry relative="1" as="geometry"/>
                </mxCell>
                <mxCell id="c7TzceurybHqPkoQGUoN-25" value="" style="dashed=0;outlineConnect=0;html=1;align=center;labelPosition=center;verticalLabelPosition=bottom;verticalAlign=top;shape=mxgraph.weblogos.chrome;labelBackgroundColor=default;" vertex="1" parent="smao1aKQK8r9l-RYpVJB-0">
                    <mxGeometry x="60" y="165" width="30" height="30" as="geometry"/>
                </mxCell>
            </root>
        </mxGraphModel>
    </diagram>
</mxfile>